<mxfile host="app.diagrams.net" modified="2020-04-23T17:10:38.229Z" agent="5.0 (Windows)" etag="ttzKaSm2OnWiwuIK3cyB" version="12.9.8" type="github">
  <diagram id="jYejewZL4RnewdmWwtDY" name="Page-1">
    <mxGraphModel dx="876" dy="755" grid="1" gridSize="10" guides="1" tooltips="1" connect="1" arrows="1" fold="1" page="1" pageScale="1" pageWidth="850" pageHeight="1100" math="0" shadow="0">
      <root>
        <mxCell id="0" />
        <mxCell id="1" parent="0" />
        <mxCell id="s8IivAvc6s-XAy5n7E5O-6" value="&lt;div&gt;Log Functions&lt;br&gt;&lt;/div&gt;" style="rounded=0;whiteSpace=wrap;html=1;align=left;labelPosition=center;verticalLabelPosition=middle;verticalAlign=top;" vertex="1" parent="1">
          <mxGeometry x="170" y="590" width="370" height="280" as="geometry" />
        </mxCell>
      </root>
    </mxGraphModel>
  </diagram>
</mxfile>
